<svg xmlns="http://www.w3.org/2000/svg" viewBox="0 0 1600 1200" role="img" aria-label="Бокс автомойки">
  <defs>
    <linearGradient id="bg2" x1="0" y1="0" x2="0" y2="1">
      <stop offset="0" stop-color="#07090c"/>
      <stop offset="1" stop-color="#11161f"/>
    </linearGradient>
    <radialGradient id="spot2" cx="50%" cy="35%" r="65%">
      <stop offset="0" stop-color="#ffffff" stop-opacity="0.15"/>
      <stop offset="1" stop-color="#ffffff" stop-opacity="0"/>
    </radialGradient>
  </defs>
  <rect width="1600" height="1200" fill="url(#bg2)"/>
  <rect width="1600" height="1200" fill="url(#spot2)"/>
  <g opacity="0.7">
    <rect x="100" y="70" width="1400" height="8" fill="#caa436"/>
    <rect x="220" y="140" width="1160" height="5" fill="#caa436" opacity="0.6"/>
    <rect x="340" y="210" width="920" height="4" fill="#caa436" opacity="0.4"/>
  </g>
  <g fill="#ffffff" opacity="0.08">
    <circle cx="180" cy="420" r="48"/>
    <circle cx="260" cy="510" r="68"/>
    <circle cx="1340" cy="380" r="56"/>
    <circle cx="1470" cy="480" r="42"/>
    <circle cx="240" cy="820" r="86"/>
    <circle cx="1380" cy="860" r="76"/>
  </g>
  <g transform="translate(420,500)">
    <rect x="0" y="160" width="760" height="280" rx="46" fill="#0b0f15"/>
    <rect x="70" y="100" width="620" height="140" rx="34" fill="#11161f"/>
    <rect x="90" y="124" width="580" height="92" rx="22" fill="#1a2230"/>
    <rect x="46" y="220" width="130" height="44" rx="8" fill="#caa436" opacity="0.85"/>
    <rect x="584" y="220" width="130" height="44" rx="8" fill="#caa436" opacity="0.85"/>
    <circle cx="130" cy="460" r="56" fill="#0b0f15" stroke="#2a3445" stroke-width="5"/>
    <circle cx="630" cy="460" r="56" fill="#0b0f15" stroke="#2a3445" stroke-width="5"/>
  </g>
  <rect y="960" width="1600" height="240" fill="#0b0f15"/>
  <rect y="960" width="1600" height="240" fill="url(#spot2)"/>
  <g fill="#caa436" opacity="0.55">
    <text x="60" y="1100" font-family="Manrope, sans-serif" font-size="32" font-weight="700" letter-spacing="0.2em">АВТОМОЙКА КОЛОМЕНСКАЯ</text>
    <text x="60" y="1144" font-family="Manrope, sans-serif" font-size="22" letter-spacing="0.25em">ЗАМЕНИТЕ ЭТОТ ФАЙЛ СВОИМ ФОТО</text>
  </g>
</svg>
